<svg xmlns="http://www.w3.org/2000/svg" xmlns:cc="http://web.resource.org/cc/" xmlns:svg="http://www.w3.org/2000/svg" xmlns:xlink="http://www.w3.org/1999/xlink" id="svg2" width="48" height="48"><defs id="defs4"><linearGradient id="linearGradient2992"><stop id="stop2994" offset="0" style="stop-color:#a89954;stop-opacity:.56862748"/><stop style="stop-color:#cfc56f;stop-opacity:.72156864" id="stop2996" offset=".11"/><stop id="stop2998" offset="1" style="stop-color:#e4dfae;stop-opacity:.23137255"/></linearGradient><linearGradient id="linearGradient2984"><stop id="stop2986" offset="0" style="stop-color:#a89954;stop-opacity:.56862748"/><stop style="stop-color:#cfc56f;stop-opacity:.72156864" id="stop2988" offset=".11"/><stop id="stop2990" offset="1" style="stop-color:#e4dfae;stop-opacity:.23137255"/></linearGradient><linearGradient id="linearGradient2978"><stop style="stop-color:#99863a;stop-opacity:1" id="stop2980" offset="0"/><stop style="stop-color:#d8d19a;stop-opacity:1" id="stop2982" offset="1"/></linearGradient><linearGradient id="linearGradient3668"><stop id="stop3670" offset="0" style="stop-color:#7e7e7e;stop-opacity:.56862748"/><stop style="stop-color:#9f9f9f;stop-opacity:.72156864" id="stop3672" offset=".11"/><stop id="stop3674" offset="1" style="stop-color:#c9c9c9;stop-opacity:.23137255"/></linearGradient><linearGradient id="linearGradient3660"><stop id="stop3662" offset="0" style="stop-color:#7e7e7e;stop-opacity:.56862748"/><stop style="stop-color:#9f9f9f;stop-opacity:.72156864" id="stop3664" offset=".11"/><stop id="stop3666" offset="1" style="stop-color:#c9c9c9;stop-opacity:.23137255"/></linearGradient><linearGradient id="linearGradient3654"><stop style="stop-color:#696969;stop-opacity:1" id="stop3656" offset="0"/><stop style="stop-color:#b9b9b9;stop-opacity:1" id="stop3658" offset="1"/></linearGradient><linearGradient id="linearGradient2448"><stop id="stop2450" offset="0" style="stop-color:#c8a20b;stop-opacity:1"/><stop id="stop2452" offset="1" style="stop-color:#f7e87b;stop-opacity:1"/></linearGradient><linearGradient id="linearGradient2414"><stop style="stop-color:#f8e082;stop-opacity:1" id="stop2416" offset="0"/><stop style="stop-color:#cba40d;stop-opacity:1" id="stop2418" offset="1"/></linearGradient><linearGradient id="linearGradient2390"><stop id="stop2392" offset="0" style="stop-color:#ac8b0b;stop-opacity:1"/><stop id="stop2394" offset="1" style="stop-color:#ac8b0b;stop-opacity:0"/></linearGradient><linearGradient id="linearGradient2119"><stop style="stop-color:#d2b32a;stop-opacity:.56730771" id="stop2121" offset="0"/><stop id="stop2378" offset=".11" style="stop-color:#ffeb3f;stop-opacity:.72156864"/><stop style="stop-color:#fff493;stop-opacity:.23076923" id="stop2123" offset="1"/></linearGradient><linearGradient id="linearGradient2041"><stop style="stop-color:#d9d9d9;stop-opacity:1" id="stop2043" offset="0"/><stop style="stop-color:#d9d9d9;stop-opacity:0" id="stop2045" offset="1"/></linearGradient><linearGradient id="linearGradient2125" x1="333.571" x2="564.286" y1="459.005" y2="459.005" gradientTransform="translate(0.000000,-5.103373e-6)" gradientUnits="userSpaceOnUse" xlink:href="#linearGradient2119"/><linearGradient id="linearGradient2376" x1="336.156" x2="567" y1="504.344" y2="504.344" gradientUnits="userSpaceOnUse" xlink:href="#linearGradient2119"/><radialGradient id="radialGradient2412" cx="208.841" cy="515.082" r="90" fx="208.841" fy="515.082" gradientTransform="matrix(1.826087,2.970972e-2,-1.529595e-2,0.987724,-166.6825,-0.415230)" gradientUnits="userSpaceOnUse" xlink:href="#linearGradient2414"/><radialGradient id="radialGradient2438" cx="208.841" cy="515.082" r="90" fx="208.841" fy="515.082" gradientTransform="matrix(1.848149,2.978268e-2,-1.548075e-2,0.990149,-170.5172,-1.812833)" gradientUnits="userSpaceOnUse" xlink:href="#linearGradient2414"/><radialGradient id="radialGradient2446" cx="208.841" cy="515.082" r="90" fx="208.841" fy="515.082" gradientTransform="matrix(1.847789,4.753482e-2,-3.481129e-2,1.394748,-160.4851,-213.9218)" gradientUnits="userSpaceOnUse" xlink:href="#linearGradient2448"/><linearGradient id="linearGradient2474" x1="333.571" x2="564.286" y1="459.005" y2="459.005" gradientTransform="translate(0.000000,-5.103373e-6)" gradientUnits="userSpaceOnUse" xlink:href="#linearGradient2119"/><linearGradient id="linearGradient2476" x1="336.156" x2="567" y1="504.344" y2="504.344" gradientUnits="userSpaceOnUse" xlink:href="#linearGradient2119"/><radialGradient id="radialGradient2478" cx="208.841" cy="515.082" r="90" fx="208.841" fy="515.082" gradientTransform="matrix(1.847789,4.753482e-2,-3.481129e-2,1.394748,-160.4851,-213.9218)" gradientUnits="userSpaceOnUse" xlink:href="#linearGradient2448"/><linearGradient id="linearGradient2484" x1="336.156" x2="567" y1="504.344" y2="504.344" gradientUnits="userSpaceOnUse" xlink:href="#linearGradient2119"/><linearGradient id="linearGradient2487" x1="333.571" x2="564.286" y1="459.005" y2="459.005" gradientTransform="translate(0.000000,-5.103373e-6)" gradientUnits="userSpaceOnUse" xlink:href="#linearGradient2119"/><radialGradient id="radialGradient2490" cx="208.841" cy="515.082" r="90" fx="208.841" fy="515.082" gradientTransform="matrix(1.847789,4.753482e-2,-3.481129e-2,1.394748,-160.4851,-213.9218)" gradientUnits="userSpaceOnUse" xlink:href="#linearGradient2448"/><linearGradient id="linearGradient2518" x1="333.571" x2="564.286" y1="459.005" y2="459.005" gradientTransform="translate(2.713108e-14,-5.103373e-6)" gradientUnits="userSpaceOnUse" xlink:href="#linearGradient2119"/><linearGradient id="linearGradient2520" x1="336.156" x2="567" y1="504.344" y2="504.344" gradientUnits="userSpaceOnUse" xlink:href="#linearGradient2119"/><radialGradient id="radialGradient2522" cx="208.841" cy="515.082" r="90" fx="208.841" fy="515.082" gradientTransform="matrix(1.847789,4.753482e-2,-3.481129e-2,1.394748,-160.4851,-213.9218)" gradientUnits="userSpaceOnUse" xlink:href="#linearGradient2448"/><radialGradient id="radialGradient2601" cx="208.841" cy="515.082" r="90" fx="208.841" fy="515.082" gradientTransform="matrix(0.185453,4.990015e-3,-3.493835e-3,0.146415,-26.52784,-70.89360)" gradientUnits="userSpaceOnUse" xlink:href="#linearGradient2448"/><radialGradient id="radialGradient2609" cx="208.841" cy="515.082" r="90" fx="208.841" fy="515.082" gradientTransform="matrix(0.185453,4.990015e-3,-3.493835e-3,0.146415,-26.52784,-50.89360)" gradientUnits="userSpaceOnUse" xlink:href="#linearGradient2448"/><radialGradient id="radialGradient1381" cx="16.215" cy="19.836" r="13.565" fx="16.215" fy="19.836" gradientTransform="matrix(1.000000,0.000000,0.000000,0.681917,0.000000,8.233773)" gradientUnits="userSpaceOnUse" xlink:href="#linearGradient4344"/><linearGradient id="linearGradient1369" x1="20.662" x2="22.627" y1="35.818" y2="36.218" gradientTransform="matrix(0.983375,0.181588,-0.181588,0.983375,-7.072120,-9.824920)" gradientUnits="userSpaceOnUse" xlink:href="#linearGradient4356"/><linearGradient id="linearGradient4374" x1="22.687" x2="21.408" y1="36.39" y2="35.74" gradientTransform="matrix(-0.977685,0.210075,0.210075,0.977685,41.80576,-11.11866)" gradientUnits="userSpaceOnUse" xlink:href="#linearGradient4356"/><linearGradient id="linearGradient4372" x1="20.662" x2="22.627" y1="35.818" y2="36.218" gradientTransform="matrix(0.983375,0.181588,-0.181588,0.983375,-7.072120,-9.824920)" gradientUnits="userSpaceOnUse" xlink:href="#linearGradient4356"/><radialGradient id="radialGradient4350" cx="16.215" cy="19.836" r="13.565" fx="16.215" fy="19.836" gradientTransform="matrix(1.000000,0.000000,0.000000,0.681917,0.000000,8.233773)" gradientUnits="userSpaceOnUse" xlink:href="#linearGradient4344"/><radialGradient id="radialGradient4336" cx="31.113" cy="19.009" r="8.662" fx="31.113" fy="19.009" gradientUnits="userSpaceOnUse" xlink:href="#linearGradient3816"/><linearGradient id="linearGradient4332" x1="30.936" x2="30.936" y1="29.553" y2="35.803" gradientTransform="translate(-13.12500,-7.000000)" gradientUnits="userSpaceOnUse" xlink:href="#linearGradient3824"/><radialGradient id="radialGradient4330" cx="31.113" cy="19.009" r="8.662" fx="31.113" fy="19.009" gradientUnits="userSpaceOnUse" xlink:href="#linearGradient3816"/><radialGradient id="radialGradient4328" cx="29.345" cy="17.064" r="9.162" fx="29.345" fy="17.064" gradientTransform="matrix(0.787998,3.877637e-16,-3.877637e-16,0.787998,6.221198,3.617627)" gradientUnits="userSpaceOnUse" xlink:href="#linearGradient4338"/><linearGradient id="linearGradient4326" x1="30.936" x2="30.936" y1="29.553" y2="35.803" gradientTransform="translate(-12.41789,-7.000000)" gradientUnits="userSpaceOnUse" xlink:href="#linearGradient3824"/><radialGradient id="radialGradient4179" cx="31.113" cy="19.009" r="8.662" fx="31.113" fy="19.009" gradientUnits="userSpaceOnUse" xlink:href="#linearGradient3816"/><linearGradient id="linearGradient4175" x1="30.936" x2="30.936" y1="29.553" y2="35.803" gradientTransform="translate(0.707108,0.000000)" gradientUnits="userSpaceOnUse" xlink:href="#linearGradient3824"/><radialGradient id="radialGradient3806" cx="29.345" cy="17.064" r="9.162" fx="29.345" fy="17.064" gradientUnits="userSpaceOnUse" xlink:href="#linearGradient3800"/><linearGradient id="linearGradient3800"><stop id="stop3802" offset="0" style="stop-color:#f4d9b1;stop-opacity:1"/><stop id="stop3804" offset="1" style="stop-color:#df9725;stop-opacity:1"/></linearGradient><linearGradient id="linearGradient3816"><stop id="stop3818" offset="0" style="stop-color:#000;stop-opacity:1"/><stop id="stop3820" offset="1" style="stop-color:#000;stop-opacity:0"/></linearGradient><linearGradient id="linearGradient3824"><stop id="stop3826" offset="0" style="stop-color:#fff;stop-opacity:1"/><stop id="stop3828" offset="1" style="stop-color:#c9c9c9;stop-opacity:1"/></linearGradient><linearGradient id="linearGradient4163"><stop id="stop4165" offset="0" style="stop-color:#3b74bc;stop-opacity:1"/><stop id="stop4167" offset="1" style="stop-color:#2d5990;stop-opacity:1"/></linearGradient><linearGradient id="linearGradient4338"><stop style="stop-color:#e9b15e;stop-opacity:1" id="stop4340" offset="0"/><stop style="stop-color:#966416;stop-opacity:1" id="stop4342" offset="1"/></linearGradient><linearGradient id="linearGradient4344"><stop id="stop4346" offset="0" style="stop-color:#727e0a;stop-opacity:1"/><stop id="stop4348" offset="1" style="stop-color:#5b6508;stop-opacity:1"/></linearGradient><linearGradient id="linearGradient4356"><stop id="stop4358" offset="0" style="stop-color:#000;stop-opacity:1"/><stop id="stop4360" offset="1" style="stop-color:#000;stop-opacity:0"/></linearGradient><linearGradient id="linearGradient3041"><stop id="stop3043" offset="0" style="stop-color:#000;stop-opacity:1"/><stop id="stop3045" offset="1" style="stop-color:#000;stop-opacity:0"/></linearGradient><linearGradient id="linearGradient3049"><stop id="stop3051" offset="0" style="stop-color:#b6b6b6;stop-opacity:1"/><stop style="stop-color:#f2f2f2;stop-opacity:1" id="stop2262" offset=".5"/><stop id="stop2264" offset=".676" style="stop-color:#fafafa;stop-opacity:1"/><stop style="stop-color:#d8d8d8;stop-opacity:1" id="stop2268" offset=".841"/><stop style="stop-color:#f2f2f2;stop-opacity:1" id="stop2266" offset=".875"/><stop id="stop3053" offset="1" style="stop-color:#dbdbdb;stop-opacity:1"/></linearGradient><linearGradient id="linearGradient3061"><stop id="stop3063" offset="0" style="stop-color:#fff;stop-opacity:1"/><stop id="stop3065" offset="1" style="stop-color:#000;stop-opacity:1"/></linearGradient><linearGradient id="linearGradient3077"><stop id="stop3079" offset="0" style="stop-color:#98a0a9;stop-opacity:1"/><stop id="stop3081" offset="1" style="stop-color:#c3d0dd;stop-opacity:1"/></linearGradient><linearGradient id="linearGradient3087"><stop id="stop3089" offset="0" style="stop-color:#3465a4;stop-opacity:1"/><stop style="stop-color:#9fbce1;stop-opacity:1" id="stop3095" offset="0"/><stop id="stop2242" offset="0" style="stop-color:#6b95ca;stop-opacity:1"/><stop style="stop-color:#3d6aa5;stop-opacity:1" id="stop2244" offset=".75"/><stop id="stop3091" offset="1" style="stop-color:#386eb4;stop-opacity:1"/></linearGradient><linearGradient id="linearGradient2257"><stop id="stop2259" offset="0" style="stop-color:#fff;stop-opacity:1"/><stop id="stop2261" offset="1" style="stop-color:#fff;stop-opacity:0"/></linearGradient><linearGradient id="linearGradient2265"><stop id="stop2267" offset="0" style="stop-color:#000;stop-opacity:1"/><stop id="stop2269" offset="1" style="stop-color:#000;stop-opacity:0"/></linearGradient><linearGradient id="linearGradient2250"><stop id="stop2252" offset="0" style="stop-color:#fff;stop-opacity:1"/><stop id="stop2254" offset="1" style="stop-color:#fff;stop-opacity:0"/></linearGradient><linearGradient id="linearGradient259"><stop style="stop-color:#fafafa;stop-opacity:1" id="stop260" offset="0"/><stop style="stop-color:#bbb;stop-opacity:1" id="stop261" offset="1"/></linearGradient><linearGradient id="linearGradient269"><stop style="stop-color:#a3a3a3;stop-opacity:1" id="stop270" offset="0"/><stop style="stop-color:#4c4c4c;stop-opacity:1" id="stop271" offset="1"/></linearGradient><radialGradient id="aigrd2" cx="20.892" cy="114.568" r="5.256" fx="20.892" fy="114.568" gradientUnits="userSpaceOnUse"><stop id="stop15566" offset="0" style="stop-color:#f0f0f0"/><stop id="stop15568" offset="1" style="stop-color:#9a9a9a;stop-opacity:1"/></radialGradient><radialGradient id="aigrd3" cx="20.892" cy="64.568" r="5.257" fx="20.892" fy="64.568" gradientUnits="userSpaceOnUse"><stop id="stop15573" offset="0" style="stop-color:#f0f0f0"/><stop id="stop15575" offset="1" style="stop-color:#9a9a9a;stop-opacity:1"/></radialGradient><linearGradient id="linearGradient15662"><stop style="stop-color:#fff;stop-opacity:1" id="stop15664" offset="0"/><stop style="stop-color:#f8f8f8;stop-opacity:1" id="stop15666" offset="1"/></linearGradient><radialGradient id="radialGradient2069" cx="24.813" cy="39.125" r="17.688" fx="24.813" fy="39.125" gradientTransform="matrix(1.000000,0.000000,0.000000,0.374558,7.272829e-15,24.47041)" gradientUnits="userSpaceOnUse" xlink:href="#linearGradient3041"/><linearGradient id="linearGradient2067" x1="31.177" x2="40.859" y1="19.822" y2="9.657" gradientUnits="userSpaceOnUse" xlink:href="#linearGradient2250"/><linearGradient id="linearGradient2062" x1="38.228" x2="37.535" y1="13.603" y2="6.629" gradientTransform="matrix(0.878270,0.000000,0.000000,0.878270,2.847503,5.588712)" gradientUnits="userSpaceOnUse" xlink:href="#linearGradient3077"/><linearGradient id="linearGradient2060" x1="50.153" x2="25.291" y1="-3.632" y2="-4.3" gradientTransform="matrix(0.878270,-1.375944e-15,1.375944e-15,0.878270,5.328299,1.650243)" gradientUnits="userSpaceOnUse" xlink:href="#linearGradient3061"/><linearGradient id="linearGradient2058" x1="19.648" x2="20.631" y1="42.254" y2="6.776" gradientTransform="matrix(0.878270,0.000000,0.000000,0.878270,2.536988,4.967681)" gradientUnits="userSpaceOnUse" xlink:href="#linearGradient3049"/><radialGradient id="radialGradient2056" cx="24.813" cy="39.125" r="17.688" fx="24.813" fy="39.125" gradientTransform="matrix(1.000000,0.000000,0.000000,0.374558,7.194333e-15,24.47041)" gradientUnits="userSpaceOnUse" xlink:href="#linearGradient3041"/><linearGradient id="linearGradient2035"><stop id="stop2037" offset="0" style="stop-color:#b6b6b6;stop-opacity:1"/><stop style="stop-color:#f2f2f2;stop-opacity:1" id="stop2039" offset=".5"/><stop id="stop2041" offset=".676" style="stop-color:#fafafa;stop-opacity:1"/><stop style="stop-color:#d8d8d8;stop-opacity:1" id="stop2044" offset=".841"/><stop style="stop-color:#f2f2f2;stop-opacity:1" id="stop2046" offset=".875"/><stop id="stop2048" offset="1" style="stop-color:#dbdbdb;stop-opacity:1"/></linearGradient><linearGradient id="linearGradient2029"><stop id="stop2031" offset="0" style="stop-color:#fff;stop-opacity:1"/><stop id="stop2033" offset="1" style="stop-color:#000;stop-opacity:1"/></linearGradient><linearGradient id="linearGradient2023"><stop id="stop2025" offset="0" style="stop-color:#98a0a9;stop-opacity:1"/><stop id="stop2027" offset="1" style="stop-color:#c3d0dd;stop-opacity:1"/></linearGradient><linearGradient id="linearGradient2011"><stop id="stop2013" offset="0" style="stop-color:#3465a4;stop-opacity:1"/><stop style="stop-color:#9fbce1;stop-opacity:1" id="stop2015" offset="0"/><stop id="stop2017" offset="0" style="stop-color:#6b95ca;stop-opacity:1"/><stop style="stop-color:#3d6aa5;stop-opacity:1" id="stop2019" offset=".75"/><stop id="stop2021" offset="1" style="stop-color:#386eb4;stop-opacity:1"/></linearGradient><linearGradient id="linearGradient2130" x1="333.571" x2="564.286" y1="459.005" y2="459.005" gradientTransform="matrix(9.274505e-2,3.895980e-17,5.982948e-17,9.848387e-2,-8.477303,-25.38746)" gradientUnits="userSpaceOnUse" xlink:href="#linearGradient2119"/><linearGradient id="linearGradient2132" x1="336.156" x2="567" y1="504.344" y2="504.344" gradientTransform="matrix(9.274505e-2,3.895980e-17,5.982948e-17,9.848387e-2,-8.477303,-25.38746)" gradientUnits="userSpaceOnUse" xlink:href="#linearGradient2119"/><radialGradient id="radialGradient2134" cx="208.841" cy="515.082" r="90" fx="208.841" fy="515.082" gradientTransform="matrix(0.188214,5.064316e-3,-3.545858e-3,0.148595,-27.12757,-51.97619)" gradientUnits="userSpaceOnUse" xlink:href="#linearGradient2448"/><linearGradient id="linearGradient2164" x1="333.571" x2="564.286" y1="459.005" y2="459.005" gradientTransform="matrix(9.274505e-2,4.097591e-18,4.351139e-18,9.848387e-2,-8.477303,-25.38746)" gradientUnits="userSpaceOnUse" xlink:href="#linearGradient2119"/><linearGradient id="linearGradient2166" x1="336.156" x2="567" y1="504.344" y2="504.344" gradientTransform="matrix(9.274505e-2,4.097591e-18,4.351139e-18,9.848387e-2,-8.477303,-25.38746)" gradientUnits="userSpaceOnUse" xlink:href="#linearGradient2119"/><radialGradient id="radialGradient2168" cx="208.841" cy="515.082" r="90" fx="208.841" fy="515.082" gradientTransform="matrix(0.188214,5.064316e-3,-3.545858e-3,0.148595,-27.12757,-51.97619)" gradientUnits="userSpaceOnUse" xlink:href="#linearGradient2448"/><linearGradient id="linearGradient2170" x1="38.228" x2="37.535" y1="13.603" y2="6.629" gradientTransform="matrix(0.878270,0.000000,0.000000,0.878270,-11.39694,25.85938)" gradientUnits="userSpaceOnUse" xlink:href="#linearGradient3077"/><linearGradient id="linearGradient2172" x1="31.177" x2="40.859" y1="19.822" y2="9.657" gradientTransform="translate(-14.24444,20.27067)" gradientUnits="userSpaceOnUse" xlink:href="#linearGradient2250"/><linearGradient id="linearGradient2174" x1="9.75" x2="16.915" y1="32.284" y2="39.443" gradientTransform="matrix(0.878270,0.000000,0.000000,0.878270,2.536988,4.967681)" gradientUnits="userSpaceOnUse" xlink:href="#linearGradient3087"/><linearGradient id="linearGradient2176" x1="12.005" x2="10.651" y1="35.688" y2="33.195" gradientTransform="matrix(1.007254,-2.636526e-2,2.636526e-2,1.007254,1.593411,7.919100e-2)" gradientUnits="userSpaceOnUse" xlink:href="#linearGradient2257"/><linearGradient id="linearGradient2178" x1="14.018" x2="15.416" y1="36.943" y2="38.268" gradientTransform="matrix(0.878099,-1.732370e-2,1.732370e-2,0.878099,2.163687,4.067899)" gradientUnits="userSpaceOnUse" xlink:href="#linearGradient2265"/><linearGradient id="linearGradient2196" x1="333.571" x2="564.286" y1="459.005" y2="459.005" gradientTransform="matrix(9.274505e-2,4.512719e-17,4.791958e-17,9.848387e-2,-24.80713,-7.890685)" gradientUnits="userSpaceOnUse" xlink:href="#linearGradient3660"/><linearGradient id="linearGradient2198" x1="336.156" x2="567" y1="504.344" y2="504.344" gradientTransform="matrix(9.274505e-2,4.512719e-17,4.791958e-17,9.848387e-2,-24.80713,-7.890685)" gradientUnits="userSpaceOnUse" xlink:href="#linearGradient3668"/><radialGradient id="radialGradient2200" cx="208.841" cy="515.082" r="90" fx="208.841" fy="515.082" gradientTransform="matrix(0.188214,5.064316e-3,-3.545858e-3,0.148595,-43.45739,-34.47941)" gradientUnits="userSpaceOnUse" xlink:href="#linearGradient3654"/><linearGradient id="linearGradient2238" x1="333.571" x2="564.286" y1="459.005" y2="459.005" gradientTransform="matrix(9.274505e-2,5.251703e-17,4.340194e-17,9.848387e-2,-8.477303,-25.38746)" gradientUnits="userSpaceOnUse" xlink:href="#linearGradient2992"/><linearGradient id="linearGradient2240" x1="336.156" x2="567" y1="504.344" y2="504.344" gradientTransform="matrix(9.274505e-2,5.251703e-17,4.340194e-17,9.848387e-2,-8.477303,-25.38746)" gradientUnits="userSpaceOnUse" xlink:href="#linearGradient2984"/><radialGradient id="radialGradient2242" cx="208.841" cy="515.082" r="90" fx="208.841" fy="515.082" gradientTransform="matrix(0.188214,5.064316e-3,-3.545858e-3,0.148595,-27.12757,-51.97619)" gradientUnits="userSpaceOnUse" xlink:href="#linearGradient2978"/></defs><metadata id="metadata7"/><g id="layer1" style="display:inline"><g id="g2180" transform="matrix(0.996349,2.114176e-3,2.114176e-3,0.996349,17.66471,-26.60345)" style="display:inline"><path style="opacity:1;fill:#8b8b8b;fill-opacity:1;fill-rule:evenodd;stroke:none;stroke-width:1;stroke-linecap:butt;stroke-linejoin:round;stroke-miterlimit:4;stroke-dasharray:none;stroke-opacity:1" id="path2182" d="M -2.5485721,29.215525 C -7.8875072,29.215525 -12.204821,33.748892 -12.204822,39.340525 C -12.204822,44.932157 -7.8875068,49.465524 -2.5485721,49.465525 C 1.4566009,49.465525 4.8893449,46.914753 6.3576779,43.278025 L 8.0451779,43.278025 L 10.576428,41.871775 L 11.138928,43.278025 L 18.138928,42.871775 L 19.107678,41.403025 L 20.201428,42.871775 L 21.982678,42.871775 L 22.951428,40.590525 L 24.045178,42.278025 L 25.670178,42.278025 C 25.682478,42.278025 25.692909,42.286301 25.701428,42.278025 C 25.709946,42.269748 25.732679,42.259837 25.732678,42.246775 C 25.732678,42.246775 28.857678,39.246775 28.857678,39.246775 C 28.857679,39.246775 27.607678,35.684275 27.607678,35.684275 L 6.2951779,35.246775 C 4.7949949,31.686840 1.4035049,29.215526 -2.5485721,29.215525 z M -6.4235721,35.496775 L -6.0173221,35.496775 C -4.9474491,35.496775 -4.0798221,36.400342 -4.0798221,37.496775 L -4.0798221,40.715525 C -4.0798221,41.811958 -4.9474491,42.684275 -6.0173221,42.684275 L -6.4235721,42.684275 C -7.4934447,42.684275 -8.3610721,41.811958 -8.3610721,40.715525 L -8.3610721,37.496775 C -8.3610721,36.400342 -7.4934449,35.496775 -6.4235721,35.496775 z"/><path style="fill:url(#linearGradient2196);fill-opacity:1;fill-rule:evenodd;stroke:none;stroke-width:.31200001;stroke-linecap:butt;stroke-linejoin:round;stroke-miterlimit:4;stroke-opacity:1" id="path2184" d="M 6.1743809,36.251689 L 27.483176,36.565557 C 27.507778,36.565557 27.527582,36.582312 27.527582,36.603126 L 27.527582,37.592894 C 27.527582,37.613707 27.507778,37.630463 27.483176,37.630463 L 6.1743809,37.316596 C 6.1497809,37.316596 6.1299749,37.299839 6.1299749,37.279026 L 6.1299749,36.289259 C 6.1299749,36.268445 6.1497809,36.251689 6.1743809,36.251689 z"/><path style="opacity:1;fill:url(#linearGradient2198);fill-opacity:1;fill-rule:evenodd;stroke:none;stroke-width:1;stroke-linecap:butt;stroke-linejoin:round;stroke-miterlimit:4;stroke-dasharray:none;stroke-opacity:1" id="path2186" d="M 27.779318,40.089425 L 6.4073809,40.135590 C 6.3857509,40.135590 6.3697019,40.184157 6.3697029,40.246384 L 6.3697029,43.074718 L 8.0476239,43.074718 L 10.569315,41.668245 L 11.137378,43.074718 L 18.125138,42.680782 L 19.113453,41.191214 L 20.191614,42.680782 L 21.968261,42.680782 L 22.956576,40.403343 L 24.034737,42.089879 L 25.680962,42.089879 C 25.693262,42.089879 25.704324,42.085844 25.712843,42.077569 C 25.721360,42.069291 25.727335,42.056777 25.727334,42.043715 C 25.727334,42.043715 26.853419,40.971473 27.779318,40.089425 z"/><path style="fill:url(#radialGradient2200);fill-opacity:1;fill-rule:evenodd;stroke:none;stroke-width:.31200001;stroke-linecap:butt;stroke-linejoin:round;stroke-miterlimit:4;stroke-opacity:1" id="path2188" d="M -2.5798191,29.731255 C -7.6401966,29.731255 -11.745545,34.022102 -11.745545,39.309279 C -11.745545,44.596456 -7.6401963,48.887304 -2.5798191,48.887304 C 2.4805569,48.887304 6.5859059,44.596456 6.5859059,39.309279 C 6.5859059,34.022102 2.4805569,29.731255 -2.5798191,29.731255 z M -6.4808030,35.440011 L -6.0685041,35.440011 C -4.9827001,35.440011 -4.1021541,36.357032 -4.1021541,37.469791 L -4.1021541,40.736468 C -4.1021541,41.849227 -4.9827001,42.734533 -6.0685041,42.734533 L -6.4808030,42.734533 C -7.5666060,42.734533 -8.4471524,41.849227 -8.4471524,40.736468 L -8.4471524,37.469791 C -8.4471524,36.357032 -7.5666062,35.440011 -6.4808030,35.440011 z"/><path style="opacity:.45405403;fill:#696969;fill-opacity:1;fill-rule:evenodd;stroke:none;stroke-width:.31200001;stroke-linecap:butt;stroke-linejoin:round;stroke-miterlimit:4;stroke-opacity:1" id="path2190" d="M 5.3807239,34.583698 C 0.79890691,34.925126 -0.44944809,37.210915 -4.1021541,39.689863 L -4.1021541,40.736468 C -4.1021541,41.849227 -4.9827001,42.734533 -6.0685041,42.734533 L -6.4808030,42.734533 C -7.1589099,42.734533 -7.6832237,42.348217 -8.0348533,41.814789 C -9.1410391,42.223371 -10.173026,42.427634 -11.206385,42.575956 C -9.9279680,46.257713 -6.5434018,48.887302 -2.5798191,48.887304 C 2.4805749,48.887305 6.5859049,44.596468 6.5859059,39.309279 C 6.5859059,37.589153 6.1415389,35.979490 5.3807239,34.583698 z"/><path style="fill:none;fill-opacity:.94117647;fill-rule:evenodd;stroke:#ac8b0b;stroke-width:1.0036671;stroke-linecap:butt;stroke-linejoin:round;stroke-miterlimit:4;stroke-dasharray:none;stroke-opacity:1" id="path2192" d="M -6.4347146,35.510037 L -6.0213291,35.510037 C -4.9514561,35.510037 -4.0901501,36.392724 -4.0901501,37.489157 L -4.0901501,40.708590 C -4.0901501,41.805023 -4.9514561,42.687711 -6.0213291,42.687711 L -6.4347146,42.687711 C -7.5045874,42.687711 -8.3658929,41.805023 -8.3658929,40.708590 L -8.3658929,37.489157 C -8.3658929,36.392724 -7.5045874,35.510037 -6.4347146,35.510037 z"/><path id="path2194" d="M -2.5485721,29.215525 C -7.8875072,29.215525 -12.204821,33.748892 -12.204822,39.340525 C -12.204822,44.932157 -7.8875068,49.465524 -2.5485721,49.465525 C 1.4566009,49.465525 4.8893449,46.914753 6.3576779,43.278025 L 8.0451779,43.278025 L 10.576428,41.371775 L 11.638928,43.278025 L 17.638928,42.871775 L 19.107678,39.903025 L 20.701428,42.871775 L 21.982678,42.871775 L 22.951428,40.090525 L 24.545178,42.278025 L 25.670178,42.278025 C 25.682478,42.278025 25.692909,42.286301 25.701428,42.278025 C 25.709946,42.269748 25.732679,42.259837 25.732678,42.246775 C 25.732678,42.246775 28.857678,39.246775 28.857678,39.246775 C 28.857679,39.246775 27.607678,35.684275 27.607678,35.684275 L 6.2951779,35.246775 C 4.7949949,31.686840 1.4035049,29.215526 -2.5485721,29.215525 z M -6.4235721,35.496775 L -6.0173221,35.496775 C -4.9474491,35.496775 -4.0798221,36.400342 -4.0798221,37.496775 L -4.0798221,40.715525 C -4.0798221,41.811958 -4.9474491,42.684275 -6.0173221,42.684275 L -6.4235721,42.684275 C -7.4934447,42.684275 -8.3610721,41.811958 -8.3610721,40.715525 L -8.3610721,37.496775 C -8.3610721,36.400342 -7.4934449,35.496775 -6.4235721,35.496775 z" style="opacity:1;fill:none;fill-opacity:1;fill-rule:evenodd;stroke:#5b5b5b;stroke-width:1.0036671;stroke-linecap:butt;stroke-linejoin:miter;stroke-miterlimit:4;stroke-dasharray:none;stroke-opacity:1"/></g><g id="g2222" transform="matrix(0.861806,0.500006,-0.496343,0.863920,13.18932,-10.26761)" style="display:inline"><path style="opacity:1;fill:#b3a563;fill-opacity:1;fill-rule:evenodd;stroke:none;stroke-width:1;stroke-linecap:butt;stroke-linejoin:round;stroke-miterlimit:4;stroke-dasharray:none;stroke-opacity:1" id="path2224" d="M 13.781250,11.718750 C 8.4423149,11.718750 4.1250009,16.252117 4.1250000,21.843750 C 4.1250002,27.435382 8.4423153,31.968749 13.781250,31.968750 C 17.786423,31.968750 21.219167,29.417978 22.687500,25.781250 L 24.375000,25.781250 L 26.906250,24.375000 L 27.468750,25.781250 L 34.468750,25.375000 L 35.437500,23.906250 L 36.531250,25.375000 L 38.312500,25.375000 L 39.281250,23.093750 L 40.375000,24.781250 L 42.000000,24.781250 C 42.012300,24.781250 42.022731,24.789526 42.031250,24.781250 C 42.039768,24.772973 42.062501,24.763062 42.062500,24.750000 C 42.062500,24.750000 45.187500,21.750000 45.187500,21.750000 C 45.187501,21.750000 43.937500,18.187500 43.937500,18.187500 L 22.625000,17.750000 C 21.124817,14.190065 17.733327,11.718751 13.781250,11.718750 z M 9.9062500,18.000000 L 10.312500,18.000000 C 11.382373,18.000000 12.250000,18.903567 12.250000,20.000000 L 12.250000,23.218750 C 12.250000,24.315183 11.382373,25.187500 10.312500,25.187500 L 9.9062500,25.187500 C 8.8363774,25.187500 7.9687500,24.315183 7.9687500,23.218750 L 7.9687500,20.000000 C 7.9687500,18.903567 8.8363772,18.000000 9.9062500,18.000000 z"/><path style="fill:url(#linearGradient2238);fill-opacity:1;fill-rule:evenodd;stroke:none;stroke-width:.31200001;stroke-linecap:butt;stroke-linejoin:round;stroke-miterlimit:4;stroke-opacity:1" id="path2226" d="M 22.504203,18.754914 L 43.812998,19.068782 C 43.837600,19.068782 43.857404,19.085537 43.857404,19.106351 L 43.857404,20.096119 C 43.857404,20.116932 43.837600,20.133688 43.812998,20.133688 L 22.504203,19.819821 C 22.479603,19.819821 22.459797,19.803064 22.459797,19.782251 L 22.459797,18.792484 C 22.459797,18.771670 22.479603,18.754914 22.504203,18.754914 z"/><path style="opacity:1;fill:url(#linearGradient2240);fill-opacity:1;fill-rule:evenodd;stroke:none;stroke-width:1;stroke-linecap:butt;stroke-linejoin:round;stroke-miterlimit:4;stroke-dasharray:none;stroke-opacity:1" id="path2228" d="M 44.109140,22.592650 L 22.737203,22.638815 C 22.715573,22.638815 22.699524,22.687382 22.699525,22.749609 L 22.699525,25.577943 L 24.377446,25.577943 L 26.899137,24.171470 L 27.467200,25.577943 L 34.454960,25.184007 L 35.443275,23.694439 L 36.521436,25.184007 L 38.298083,25.184007 L 39.286398,22.906568 L 40.364559,24.593104 L 42.010784,24.593104 C 42.023084,24.593104 42.034146,24.589069 42.042665,24.580794 C 42.051182,24.572516 42.057157,24.560002 42.057156,24.546940 C 42.057156,24.546940 43.183241,23.474698 44.109140,22.592650 z"/><path style="fill:url(#radialGradient2242);fill-opacity:1;fill-rule:evenodd;stroke:none;stroke-width:.31200001;stroke-linecap:butt;stroke-linejoin:round;stroke-miterlimit:4;stroke-opacity:1" id="path2230" d="M 13.750003,12.234480 C 8.6896255,12.234480 4.5842774,16.525327 4.5842772,21.812504 C 4.5842772,27.099681 8.6896258,31.390529 13.750003,31.390529 C 18.810379,31.390529 22.915728,27.099681 22.915728,21.812504 C 22.915728,16.525327 18.810379,12.234480 13.750003,12.234480 z M 9.8490191,17.943236 L 10.261318,17.943236 C 11.347122,17.943236 12.227668,18.860257 12.227668,19.973016 L 12.227668,23.239693 C 12.227668,24.352452 11.347122,25.237758 10.261318,25.237758 L 9.8490191,25.237758 C 8.7632161,25.237758 7.8826697,24.352452 7.8826697,23.239693 L 7.8826697,19.973016 C 7.8826697,18.860257 8.7632159,17.943236 9.8490191,17.943236 z"/><path style="opacity:.45405403;fill:#97853c;fill-opacity:1;fill-rule:evenodd;stroke:none;stroke-width:.31200001;stroke-linecap:butt;stroke-linejoin:round;stroke-miterlimit:4;stroke-opacity:1" id="path2232" d="M 21.710546,17.086923 C 17.128729,17.428351 15.880374,19.714140 12.227668,22.193088 L 12.227668,23.239693 C 12.227668,24.352452 11.347122,25.237758 10.261318,25.237758 L 9.8490191,25.237758 C 9.1709122,25.237758 8.6465984,24.851442 8.2949688,24.318014 C 7.1887830,24.726596 6.1567964,24.930859 5.1234375,25.079181 C 6.4018541,28.760938 9.7864203,31.390527 13.750003,31.390529 C 18.810397,31.390530 22.915727,27.099693 22.915728,21.812504 C 22.915728,20.092378 22.471361,18.482715 21.710546,17.086923 z"/><path style="fill:none;fill-opacity:.94117647;fill-rule:evenodd;stroke:#ac8b0b;stroke-width:1.0036671;stroke-linecap:butt;stroke-linejoin:round;stroke-miterlimit:4;stroke-dasharray:none;stroke-opacity:1" id="path2234" d="M 9.8951075,18.013262 L 10.308493,18.013262 C 11.378366,18.013262 12.239672,18.895949 12.239672,19.992382 L 12.239672,23.211815 C 12.239672,24.308248 11.378366,25.190936 10.308493,25.190936 L 9.8951075,25.190936 C 8.8252347,25.190936 7.9639292,24.308248 7.9639292,23.211815 L 7.9639292,19.992382 C 7.9639292,18.895949 8.8252347,18.013262 9.8951075,18.013262 z"/><path id="path2236" d="M 13.781250,11.718750 C 8.4423149,11.718750 4.1250009,16.252117 4.1250000,21.843750 C 4.1250002,27.435382 8.4423153,31.968749 13.781250,31.968750 C 17.786423,31.968750 21.219167,29.417978 22.687500,25.781250 L 24.375000,25.781250 L 26.906250,23.875000 L 27.968750,25.781250 L 33.968750,25.375000 L 35.437500,22.406250 L 37.031250,25.375000 L 38.312500,25.375000 L 39.281250,22.593750 L 40.875000,24.781250 L 42.000000,24.781250 C 42.012300,24.781250 42.022731,24.789526 42.031250,24.781250 C 42.039768,24.772973 42.062501,24.763062 42.062500,24.750000 C 42.062500,24.750000 45.187500,21.750000 45.187500,21.750000 C 45.187501,21.750000 43.937500,18.187500 43.937500,18.187500 L 22.625000,17.750000 C 21.124817,14.190065 17.733327,11.718751 13.781250,11.718750 z M 9.9062500,18.000000 L 10.312500,18.000000 C 11.382373,18.000000 12.250000,18.903567 12.250000,20.000000 L 12.250000,23.218750 C 12.250000,24.315183 11.382373,25.187500 10.312500,25.187500 L 9.9062500,25.187500 C 8.8363774,25.187500 7.9687500,24.315183 7.9687500,23.218750 L 7.9687500,20.000000 C 7.9687500,18.903567 8.8363772,18.000000 9.9062500,18.000000 z" style="opacity:1;fill:none;fill-opacity:1;fill-rule:evenodd;stroke:#847333;stroke-width:1.0036671;stroke-linecap:butt;stroke-linejoin:miter;stroke-miterlimit:4;stroke-dasharray:none;stroke-opacity:1"/></g><g style="display:inline" id="g2098" transform="matrix(0.496343,0.863921,-0.861806,0.500005,24.36603,-5.413539)"><path id="path2100" d="M 13.781250,11.718750 C 8.4423149,11.718750 4.1250009,16.252117 4.1250000,21.843750 C 4.1250002,27.435382 8.4423153,31.968749 13.781250,31.968750 C 17.786423,31.968750 21.219167,29.417978 22.687500,25.781250 L 24.375000,25.781250 L 26.906250,24.375000 L 27.468750,25.781250 L 34.468750,25.375000 L 35.437500,23.906250 L 36.531250,25.375000 L 38.312500,25.375000 L 39.281250,23.093750 L 40.375000,24.781250 L 42.000000,24.781250 C 42.012300,24.781250 42.022731,24.789526 42.031250,24.781250 C 42.039768,24.772973 42.062501,24.763062 42.062500,24.750000 C 42.062500,24.750000 45.187500,21.750000 45.187500,21.750000 C 45.187501,21.750000 43.937500,18.187500 43.937500,18.187500 L 22.625000,17.750000 C 21.124817,14.190065 17.733327,11.718751 13.781250,11.718750 z M 9.9062500,18.000000 L 10.312500,18.000000 C 11.382373,18.000000 12.250000,18.903567 12.250000,20.000000 L 12.250000,23.218750 C 12.250000,24.315183 11.382373,25.187500 10.312500,25.187500 L 9.9062500,25.187500 C 8.8363774,25.187500 7.9687500,24.315183 7.9687500,23.218750 L 7.9687500,20.000000 C 7.9687500,18.903567 8.8363772,18.000000 9.9062500,18.000000 z" style="opacity:1;fill:#dabf3c;fill-opacity:1;fill-rule:evenodd;stroke:none;stroke-width:1;stroke-linecap:butt;stroke-linejoin:round;stroke-miterlimit:4;stroke-dasharray:none;stroke-opacity:1"/><path id="path2102" d="M 22.504203,18.754914 L 43.812998,19.068782 C 43.837600,19.068782 43.857404,19.085537 43.857404,19.106351 L 43.857404,20.096119 C 43.857404,20.116932 43.837600,20.133688 43.812998,20.133688 L 22.504203,19.819821 C 22.479603,19.819821 22.459797,19.803064 22.459797,19.782251 L 22.459797,18.792484 C 22.459797,18.771670 22.479603,18.754914 22.504203,18.754914 z" style="fill:url(#linearGradient2130);fill-opacity:1;fill-rule:evenodd;stroke:none;stroke-width:.31200001;stroke-linecap:butt;stroke-linejoin:round;stroke-miterlimit:4;stroke-opacity:1"/><path id="path2104" d="M 44.109140,22.592650 L 22.737203,22.638815 C 22.715573,22.638815 22.699524,22.687382 22.699525,22.749609 L 22.699525,25.577943 L 24.377446,25.577943 L 26.899137,24.171470 L 27.467200,25.577943 L 34.454960,25.184007 L 35.443275,23.694439 L 36.521436,25.184007 L 38.298083,25.184007 L 39.286398,22.906568 L 40.364559,24.593104 L 42.010784,24.593104 C 42.023084,24.593104 42.034146,24.589069 42.042665,24.580794 C 42.051182,24.572516 42.057157,24.560002 42.057156,24.546940 C 42.057156,24.546940 43.183241,23.474698 44.109140,22.592650 z" style="opacity:1;fill:url(#linearGradient2132);fill-opacity:1;fill-rule:evenodd;stroke:none;stroke-width:1;stroke-linecap:butt;stroke-linejoin:round;stroke-miterlimit:4;stroke-dasharray:none;stroke-opacity:1"/><path id="path2106" d="M 13.750003,12.234480 C 8.6896255,12.234480 4.5842774,16.525327 4.5842772,21.812504 C 4.5842772,27.099681 8.6896258,31.390529 13.750003,31.390529 C 18.810379,31.390529 22.915728,27.099681 22.915728,21.812504 C 22.915728,16.525327 18.810379,12.234480 13.750003,12.234480 z M 9.8490191,17.943236 L 10.261318,17.943236 C 11.347122,17.943236 12.227668,18.860257 12.227668,19.973016 L 12.227668,23.239693 C 12.227668,24.352452 11.347122,25.237758 10.261318,25.237758 L 9.8490191,25.237758 C 8.7632161,25.237758 7.8826697,24.352452 7.8826697,23.239693 L 7.8826697,19.973016 C 7.8826697,18.860257 8.7632159,17.943236 9.8490191,17.943236 z" style="fill:url(#radialGradient2134);fill-opacity:1;fill-rule:evenodd;stroke:none;stroke-width:.31200001;stroke-linecap:butt;stroke-linejoin:round;stroke-miterlimit:4;stroke-opacity:1"/><path id="path2108" d="M 21.710546,17.086923 C 17.128729,17.428351 15.880374,19.714140 12.227668,22.193088 L 12.227668,23.239693 C 12.227668,24.352452 11.347122,25.237758 10.261318,25.237758 L 9.8490191,25.237758 C 9.1709122,25.237758 8.6465984,24.851442 8.2949688,24.318014 C 7.1887830,24.726596 6.1567964,24.930859 5.1234375,25.079181 C 6.4018541,28.760938 9.7864203,31.390527 13.750003,31.390529 C 18.810397,31.390530 22.915727,27.099693 22.915728,21.812504 C 22.915728,20.092378 22.471361,18.482715 21.710546,17.086923 z" style="opacity:.45405403;fill:#c4a00f;fill-opacity:1;fill-rule:evenodd;stroke:none;stroke-width:.31200001;stroke-linecap:butt;stroke-linejoin:round;stroke-miterlimit:4;stroke-opacity:1"/><path id="path2110" d="M 9.8951075,18.013262 L 10.308493,18.013262 C 11.378366,18.013262 12.239672,18.895949 12.239672,19.992382 L 12.239672,23.211815 C 12.239672,24.308248 11.378366,25.190936 10.308493,25.190936 L 9.8951075,25.190936 C 8.8252347,25.190936 7.9639292,24.308248 7.9639292,23.211815 L 7.9639292,19.992382 C 7.9639292,18.895949 8.8252347,18.013262 9.8951075,18.013262 z" style="fill:none;fill-opacity:.94117647;fill-rule:evenodd;stroke:#ac8b0b;stroke-width:1.0036671;stroke-linecap:butt;stroke-linejoin:round;stroke-miterlimit:4;stroke-dasharray:none;stroke-opacity:1"/><path style="opacity:1;fill:none;fill-opacity:1;fill-rule:evenodd;stroke:#ac8b0b;stroke-width:1.0036671;stroke-linecap:butt;stroke-linejoin:miter;stroke-miterlimit:4;stroke-dasharray:none;stroke-opacity:1" id="path2112" d="M 13.781250,11.718750 C 8.4423149,11.718750 4.1250009,16.252117 4.1250000,21.843750 C 4.1250002,27.435382 8.4423153,31.968749 13.781250,31.968750 C 17.786423,31.968750 21.219167,29.417978 22.687500,25.781250 L 24.375000,25.781250 L 26.906250,23.875000 L 27.968750,25.781250 L 33.968750,25.375000 L 35.437500,22.406250 L 37.031250,25.375000 L 38.312500,25.375000 L 39.281250,22.593750 L 40.875000,24.781250 L 42.000000,24.781250 C 42.012300,24.781250 42.022731,24.789526 42.031250,24.781250 C 42.039768,24.772973 42.062501,24.763062 42.062500,24.750000 C 42.062500,24.750000 45.187500,21.750000 45.187500,21.750000 C 45.187501,21.750000 43.937500,18.187500 43.937500,18.187500 L 22.625000,17.750000 C 21.124817,14.190065 17.733327,11.718751 13.781250,11.718750 z M 9.9062500,18.000000 L 10.312500,18.000000 C 11.382373,18.000000 12.250000,18.903567 12.250000,20.000000 L 12.250000,23.218750 C 12.250000,24.315183 11.382373,25.187500 10.312500,25.187500 L 9.9062500,25.187500 C 8.8363774,25.187500 7.9687500,24.315183 7.9687500,23.218750 L 7.9687500,20.000000 C 7.9687500,18.903567 8.8363772,18.000000 9.9062500,18.000000 z"/></g></g></svg>