<svg xmlns="http://www.w3.org/2000/svg" xmlns:cc="http://web.resource.org/cc/" xmlns:svg="http://www.w3.org/2000/svg" xmlns:xlink="http://www.w3.org/1999/xlink" id="svg2" width="48" height="48"><defs id="defs4"><linearGradient id="linearGradient3668"><stop id="stop3670" offset="0" style="stop-color:#7e7e7e;stop-opacity:.56862748"/><stop style="stop-color:#9f9f9f;stop-opacity:.72156864" id="stop3672" offset=".11"/><stop id="stop3674" offset="1" style="stop-color:#c9c9c9;stop-opacity:.23137255"/></linearGradient><linearGradient id="linearGradient3660"><stop id="stop3662" offset="0" style="stop-color:#7e7e7e;stop-opacity:.56862748"/><stop style="stop-color:#9f9f9f;stop-opacity:.72156864" id="stop3664" offset=".11"/><stop id="stop3666" offset="1" style="stop-color:#c9c9c9;stop-opacity:.23137255"/></linearGradient><linearGradient id="linearGradient3654"><stop style="stop-color:#696969;stop-opacity:1" id="stop3656" offset="0"/><stop style="stop-color:#b9b9b9;stop-opacity:1" id="stop3658" offset="1"/></linearGradient><linearGradient id="linearGradient2448"><stop id="stop2450" offset="0" style="stop-color:#c8a20b;stop-opacity:1"/><stop id="stop2452" offset="1" style="stop-color:#f7e87b;stop-opacity:1"/></linearGradient><linearGradient id="linearGradient2414"><stop style="stop-color:#f8e082;stop-opacity:1" id="stop2416" offset="0"/><stop style="stop-color:#cba40d;stop-opacity:1" id="stop2418" offset="1"/></linearGradient><linearGradient id="linearGradient2390"><stop id="stop2392" offset="0" style="stop-color:#ac8b0b;stop-opacity:1"/><stop id="stop2394" offset="1" style="stop-color:#ac8b0b;stop-opacity:0"/></linearGradient><linearGradient id="linearGradient2119"><stop style="stop-color:#d2b32a;stop-opacity:.56730771" id="stop2121" offset="0"/><stop id="stop2378" offset=".11" style="stop-color:#ffeb3f;stop-opacity:.72156864"/><stop style="stop-color:#fff493;stop-opacity:.23076923" id="stop2123" offset="1"/></linearGradient><linearGradient id="linearGradient2041"><stop style="stop-color:#d9d9d9;stop-opacity:1" id="stop2043" offset="0"/><stop style="stop-color:#d9d9d9;stop-opacity:0" id="stop2045" offset="1"/></linearGradient><linearGradient id="linearGradient2125" x1="333.571" x2="564.286" y1="459.005" y2="459.005" gradientTransform="translate(0.000000,-5.103373e-6)" gradientUnits="userSpaceOnUse" xlink:href="#linearGradient2119"/><linearGradient id="linearGradient2376" x1="336.156" x2="567" y1="504.344" y2="504.344" gradientUnits="userSpaceOnUse" xlink:href="#linearGradient2119"/><radialGradient id="radialGradient2412" cx="208.841" cy="515.082" r="90" fx="208.841" fy="515.082" gradientTransform="matrix(1.826087,2.970972e-2,-1.529595e-2,0.987724,-166.6825,-0.415230)" gradientUnits="userSpaceOnUse" xlink:href="#linearGradient2414"/><radialGradient id="radialGradient2438" cx="208.841" cy="515.082" r="90" fx="208.841" fy="515.082" gradientTransform="matrix(1.848149,2.978268e-2,-1.548075e-2,0.990149,-170.5172,-1.812833)" gradientUnits="userSpaceOnUse" xlink:href="#linearGradient2414"/><radialGradient id="radialGradient2446" cx="208.841" cy="515.082" r="90" fx="208.841" fy="515.082" gradientTransform="matrix(1.847789,4.753482e-2,-3.481129e-2,1.394748,-160.4851,-213.9218)" gradientUnits="userSpaceOnUse" xlink:href="#linearGradient2448"/><linearGradient id="linearGradient2474" x1="333.571" x2="564.286" y1="459.005" y2="459.005" gradientTransform="translate(0.000000,-5.103373e-6)" gradientUnits="userSpaceOnUse" xlink:href="#linearGradient2119"/><linearGradient id="linearGradient2476" x1="336.156" x2="567" y1="504.344" y2="504.344" gradientUnits="userSpaceOnUse" xlink:href="#linearGradient2119"/><radialGradient id="radialGradient2478" cx="208.841" cy="515.082" r="90" fx="208.841" fy="515.082" gradientTransform="matrix(1.847789,4.753482e-2,-3.481129e-2,1.394748,-160.4851,-213.9218)" gradientUnits="userSpaceOnUse" xlink:href="#linearGradient2448"/><linearGradient id="linearGradient2484" x1="336.156" x2="567" y1="504.344" y2="504.344" gradientUnits="userSpaceOnUse" xlink:href="#linearGradient2119"/><linearGradient id="linearGradient2487" x1="333.571" x2="564.286" y1="459.005" y2="459.005" gradientTransform="translate(0.000000,-5.103373e-6)" gradientUnits="userSpaceOnUse" xlink:href="#linearGradient2119"/><radialGradient id="radialGradient2490" cx="208.841" cy="515.082" r="90" fx="208.841" fy="515.082" gradientTransform="matrix(1.847789,4.753482e-2,-3.481129e-2,1.394748,-160.4851,-213.9218)" gradientUnits="userSpaceOnUse" xlink:href="#linearGradient2448"/><linearGradient id="linearGradient2518" x1="333.571" x2="564.286" y1="459.005" y2="459.005" gradientTransform="translate(2.713108e-14,-5.103373e-6)" gradientUnits="userSpaceOnUse" xlink:href="#linearGradient2119"/><linearGradient id="linearGradient2520" x1="336.156" x2="567" y1="504.344" y2="504.344" gradientUnits="userSpaceOnUse" xlink:href="#linearGradient2119"/><radialGradient id="radialGradient2522" cx="208.841" cy="515.082" r="90" fx="208.841" fy="515.082" gradientTransform="matrix(1.847789,4.753482e-2,-3.481129e-2,1.394748,-160.4851,-213.9218)" gradientUnits="userSpaceOnUse" xlink:href="#linearGradient2448"/><radialGradient id="radialGradient2601" cx="208.841" cy="515.082" r="90" fx="208.841" fy="515.082" gradientTransform="matrix(0.185453,4.990015e-3,-3.493835e-3,0.146415,-26.52784,-70.89360)" gradientUnits="userSpaceOnUse" xlink:href="#linearGradient2448"/><radialGradient id="radialGradient2609" cx="208.841" cy="515.082" r="90" fx="208.841" fy="515.082" gradientTransform="matrix(0.185453,4.990015e-3,-3.493835e-3,0.146415,-26.52784,-50.89360)" gradientUnits="userSpaceOnUse" xlink:href="#linearGradient2448"/><radialGradient id="radialGradient1381" cx="16.215" cy="19.836" r="13.565" fx="16.215" fy="19.836" gradientTransform="matrix(1.000000,0.000000,0.000000,0.681917,0.000000,8.233773)" gradientUnits="userSpaceOnUse" xlink:href="#linearGradient4344"/><linearGradient id="linearGradient1369" x1="20.662" x2="22.627" y1="35.818" y2="36.218" gradientTransform="matrix(0.983375,0.181588,-0.181588,0.983375,-7.072120,-9.824920)" gradientUnits="userSpaceOnUse" xlink:href="#linearGradient4356"/><linearGradient id="linearGradient4374" x1="22.687" x2="21.408" y1="36.39" y2="35.74" gradientTransform="matrix(-0.977685,0.210075,0.210075,0.977685,41.80576,-11.11866)" gradientUnits="userSpaceOnUse" xlink:href="#linearGradient4356"/><linearGradient id="linearGradient4372" x1="20.662" x2="22.627" y1="35.818" y2="36.218" gradientTransform="matrix(0.983375,0.181588,-0.181588,0.983375,-7.072120,-9.824920)" gradientUnits="userSpaceOnUse" xlink:href="#linearGradient4356"/><radialGradient id="radialGradient4350" cx="16.215" cy="19.836" r="13.565" fx="16.215" fy="19.836" gradientTransform="matrix(1.000000,0.000000,0.000000,0.681917,0.000000,8.233773)" gradientUnits="userSpaceOnUse" xlink:href="#linearGradient4344"/><radialGradient id="radialGradient4336" cx="31.113" cy="19.009" r="8.662" fx="31.113" fy="19.009" gradientUnits="userSpaceOnUse" xlink:href="#linearGradient3816"/><linearGradient id="linearGradient4332" x1="30.936" x2="30.936" y1="29.553" y2="35.803" gradientTransform="translate(-13.12500,-7.000000)" gradientUnits="userSpaceOnUse" xlink:href="#linearGradient3824"/><radialGradient id="radialGradient4330" cx="31.113" cy="19.009" r="8.662" fx="31.113" fy="19.009" gradientUnits="userSpaceOnUse" xlink:href="#linearGradient3816"/><radialGradient id="radialGradient4328" cx="29.345" cy="17.064" r="9.162" fx="29.345" fy="17.064" gradientTransform="matrix(0.787998,3.877637e-16,-3.877637e-16,0.787998,6.221198,3.617627)" gradientUnits="userSpaceOnUse" xlink:href="#linearGradient4338"/><linearGradient id="linearGradient4326" x1="30.936" x2="30.936" y1="29.553" y2="35.803" gradientTransform="translate(-12.41789,-7.000000)" gradientUnits="userSpaceOnUse" xlink:href="#linearGradient3824"/><radialGradient id="radialGradient4179" cx="31.113" cy="19.009" r="8.662" fx="31.113" fy="19.009" gradientUnits="userSpaceOnUse" xlink:href="#linearGradient3816"/><linearGradient id="linearGradient4175" x1="30.936" x2="30.936" y1="29.553" y2="35.803" gradientTransform="translate(0.707108,0.000000)" gradientUnits="userSpaceOnUse" xlink:href="#linearGradient3824"/><radialGradient id="radialGradient3806" cx="29.345" cy="17.064" r="9.162" fx="29.345" fy="17.064" gradientUnits="userSpaceOnUse" xlink:href="#linearGradient3800"/><linearGradient id="linearGradient3800"><stop id="stop3802" offset="0" style="stop-color:#f4d9b1;stop-opacity:1"/><stop id="stop3804" offset="1" style="stop-color:#df9725;stop-opacity:1"/></linearGradient><linearGradient id="linearGradient3816"><stop id="stop3818" offset="0" style="stop-color:#000;stop-opacity:1"/><stop id="stop3820" offset="1" style="stop-color:#000;stop-opacity:0"/></linearGradient><linearGradient id="linearGradient3824"><stop id="stop3826" offset="0" style="stop-color:#fff;stop-opacity:1"/><stop id="stop3828" offset="1" style="stop-color:#c9c9c9;stop-opacity:1"/></linearGradient><linearGradient id="linearGradient4163"><stop id="stop4165" offset="0" style="stop-color:#3b74bc;stop-opacity:1"/><stop id="stop4167" offset="1" style="stop-color:#2d5990;stop-opacity:1"/></linearGradient><linearGradient id="linearGradient4338"><stop style="stop-color:#e9b15e;stop-opacity:1" id="stop4340" offset="0"/><stop style="stop-color:#966416;stop-opacity:1" id="stop4342" offset="1"/></linearGradient><linearGradient id="linearGradient4344"><stop id="stop4346" offset="0" style="stop-color:#727e0a;stop-opacity:1"/><stop id="stop4348" offset="1" style="stop-color:#5b6508;stop-opacity:1"/></linearGradient><linearGradient id="linearGradient4356"><stop id="stop4358" offset="0" style="stop-color:#000;stop-opacity:1"/><stop id="stop4360" offset="1" style="stop-color:#000;stop-opacity:0"/></linearGradient><linearGradient id="linearGradient3041"><stop id="stop3043" offset="0" style="stop-color:#000;stop-opacity:1"/><stop id="stop3045" offset="1" style="stop-color:#000;stop-opacity:0"/></linearGradient><linearGradient id="linearGradient3049"><stop id="stop3051" offset="0" style="stop-color:#b6b6b6;stop-opacity:1"/><stop style="stop-color:#f2f2f2;stop-opacity:1" id="stop2262" offset=".5"/><stop id="stop2264" offset=".676" style="stop-color:#fafafa;stop-opacity:1"/><stop style="stop-color:#d8d8d8;stop-opacity:1" id="stop2268" offset=".841"/><stop style="stop-color:#f2f2f2;stop-opacity:1" id="stop2266" offset=".875"/><stop id="stop3053" offset="1" style="stop-color:#dbdbdb;stop-opacity:1"/></linearGradient><linearGradient id="linearGradient3061"><stop id="stop3063" offset="0" style="stop-color:#fff;stop-opacity:1"/><stop id="stop3065" offset="1" style="stop-color:#000;stop-opacity:1"/></linearGradient><linearGradient id="linearGradient3077"><stop id="stop3079" offset="0" style="stop-color:#98a0a9;stop-opacity:1"/><stop id="stop3081" offset="1" style="stop-color:#c3d0dd;stop-opacity:1"/></linearGradient><linearGradient id="linearGradient3087"><stop id="stop3089" offset="0" style="stop-color:#3465a4;stop-opacity:1"/><stop style="stop-color:#9fbce1;stop-opacity:1" id="stop3095" offset="0"/><stop id="stop2242" offset="0" style="stop-color:#6b95ca;stop-opacity:1"/><stop style="stop-color:#3d6aa5;stop-opacity:1" id="stop2244" offset=".75"/><stop id="stop3091" offset="1" style="stop-color:#386eb4;stop-opacity:1"/></linearGradient><linearGradient id="linearGradient2257"><stop id="stop2259" offset="0" style="stop-color:#fff;stop-opacity:1"/><stop id="stop2261" offset="1" style="stop-color:#fff;stop-opacity:0"/></linearGradient><linearGradient id="linearGradient2265"><stop id="stop2267" offset="0" style="stop-color:#000;stop-opacity:1"/><stop id="stop2269" offset="1" style="stop-color:#000;stop-opacity:0"/></linearGradient><linearGradient id="linearGradient2250"><stop id="stop2252" offset="0" style="stop-color:#fff;stop-opacity:1"/><stop id="stop2254" offset="1" style="stop-color:#fff;stop-opacity:0"/></linearGradient><linearGradient id="linearGradient259"><stop style="stop-color:#fafafa;stop-opacity:1" id="stop260" offset="0"/><stop style="stop-color:#bbb;stop-opacity:1" id="stop261" offset="1"/></linearGradient><linearGradient id="linearGradient269"><stop style="stop-color:#a3a3a3;stop-opacity:1" id="stop270" offset="0"/><stop style="stop-color:#4c4c4c;stop-opacity:1" id="stop271" offset="1"/></linearGradient><radialGradient id="aigrd2" cx="20.892" cy="114.568" r="5.256" fx="20.892" fy="114.568" gradientUnits="userSpaceOnUse"><stop id="stop15566" offset="0" style="stop-color:#f0f0f0"/><stop id="stop15568" offset="1" style="stop-color:#9a9a9a;stop-opacity:1"/></radialGradient><radialGradient id="aigrd3" cx="20.892" cy="64.568" r="5.257" fx="20.892" fy="64.568" gradientUnits="userSpaceOnUse"><stop id="stop15573" offset="0" style="stop-color:#f0f0f0"/><stop id="stop15575" offset="1" style="stop-color:#9a9a9a;stop-opacity:1"/></radialGradient><linearGradient id="linearGradient15662"><stop style="stop-color:#fff;stop-opacity:1" id="stop15664" offset="0"/><stop style="stop-color:#f8f8f8;stop-opacity:1" id="stop15666" offset="1"/></linearGradient><radialGradient id="radialGradient2069" cx="24.813" cy="39.125" r="17.688" fx="24.813" fy="39.125" gradientTransform="matrix(1.000000,0.000000,0.000000,0.374558,7.272829e-15,24.47041)" gradientUnits="userSpaceOnUse" xlink:href="#linearGradient3041"/><linearGradient id="linearGradient2067" x1="31.177" x2="40.859" y1="19.822" y2="9.657" gradientUnits="userSpaceOnUse" xlink:href="#linearGradient2250"/><linearGradient id="linearGradient2062" x1="38.228" x2="37.535" y1="13.603" y2="6.629" gradientTransform="matrix(0.878270,0.000000,0.000000,0.878270,2.847503,5.588712)" gradientUnits="userSpaceOnUse" xlink:href="#linearGradient3077"/><linearGradient id="linearGradient2060" x1="50.153" x2="25.291" y1="-3.632" y2="-4.3" gradientTransform="matrix(0.878270,-1.375944e-15,1.375944e-15,0.878270,5.328299,1.650243)" gradientUnits="userSpaceOnUse" xlink:href="#linearGradient3061"/><linearGradient id="linearGradient2058" x1="19.648" x2="20.631" y1="42.254" y2="6.776" gradientTransform="matrix(0.878270,0.000000,0.000000,0.878270,2.536988,4.967681)" gradientUnits="userSpaceOnUse" xlink:href="#linearGradient3049"/><radialGradient id="radialGradient2056" cx="24.813" cy="39.125" r="17.688" fx="24.813" fy="39.125" gradientTransform="matrix(1.000000,0.000000,0.000000,0.374558,7.194333e-15,24.47041)" gradientUnits="userSpaceOnUse" xlink:href="#linearGradient3041"/><linearGradient id="linearGradient2035"><stop id="stop2037" offset="0" style="stop-color:#b6b6b6;stop-opacity:1"/><stop style="stop-color:#f2f2f2;stop-opacity:1" id="stop2039" offset=".5"/><stop id="stop2041" offset=".676" style="stop-color:#fafafa;stop-opacity:1"/><stop style="stop-color:#d8d8d8;stop-opacity:1" id="stop2044" offset=".841"/><stop style="stop-color:#f2f2f2;stop-opacity:1" id="stop2046" offset=".875"/><stop id="stop2048" offset="1" style="stop-color:#dbdbdb;stop-opacity:1"/></linearGradient><linearGradient id="linearGradient2029"><stop id="stop2031" offset="0" style="stop-color:#fff;stop-opacity:1"/><stop id="stop2033" offset="1" style="stop-color:#000;stop-opacity:1"/></linearGradient><linearGradient id="linearGradient2023"><stop id="stop2025" offset="0" style="stop-color:#98a0a9;stop-opacity:1"/><stop id="stop2027" offset="1" style="stop-color:#c3d0dd;stop-opacity:1"/></linearGradient><linearGradient id="linearGradient2011"><stop id="stop2013" offset="0" style="stop-color:#3465a4;stop-opacity:1"/><stop style="stop-color:#9fbce1;stop-opacity:1" id="stop2015" offset="0"/><stop id="stop2017" offset="0" style="stop-color:#6b95ca;stop-opacity:1"/><stop style="stop-color:#3d6aa5;stop-opacity:1" id="stop2019" offset=".75"/><stop id="stop2021" offset="1" style="stop-color:#386eb4;stop-opacity:1"/></linearGradient><linearGradient id="linearGradient2130" x1="333.571" x2="564.286" y1="459.005" y2="459.005" gradientTransform="matrix(9.274505e-2,3.597333e-17,4.558284e-17,9.848387e-2,-8.477303,-25.38746)" gradientUnits="userSpaceOnUse" xlink:href="#linearGradient2119"/><linearGradient id="linearGradient2132" x1="336.156" x2="567" y1="504.344" y2="504.344" gradientTransform="matrix(9.274505e-2,3.597333e-17,4.558284e-17,9.848387e-2,-8.477303,-25.38746)" gradientUnits="userSpaceOnUse" xlink:href="#linearGradient2119"/><radialGradient id="radialGradient2134" cx="208.841" cy="515.082" r="90" fx="208.841" fy="515.082" gradientTransform="matrix(0.188214,5.064316e-3,-3.545858e-3,0.148595,-27.12757,-51.97619)" gradientUnits="userSpaceOnUse" xlink:href="#linearGradient2448"/><linearGradient id="linearGradient2164" x1="333.571" x2="564.286" y1="459.005" y2="459.005" gradientTransform="matrix(9.274505e-2,1.530939e-17,1.625670e-17,9.848387e-2,-8.477303,-25.38746)" gradientUnits="userSpaceOnUse" xlink:href="#linearGradient2119"/><linearGradient id="linearGradient2166" x1="336.156" x2="567" y1="504.344" y2="504.344" gradientTransform="matrix(9.274505e-2,1.530939e-17,1.625670e-17,9.848387e-2,-8.477303,-25.38746)" gradientUnits="userSpaceOnUse" xlink:href="#linearGradient2119"/><radialGradient id="radialGradient2168" cx="208.841" cy="515.082" r="90" fx="208.841" fy="515.082" gradientTransform="matrix(0.188214,5.064316e-3,-3.545858e-3,0.148595,-27.12757,-51.97619)" gradientUnits="userSpaceOnUse" xlink:href="#linearGradient2448"/><linearGradient id="linearGradient2170" x1="38.228" x2="37.535" y1="13.603" y2="6.629" gradientTransform="matrix(0.878270,0.000000,0.000000,0.878270,-11.39694,25.85938)" gradientUnits="userSpaceOnUse" xlink:href="#linearGradient3077"/><linearGradient id="linearGradient2172" x1="31.177" x2="40.859" y1="19.822" y2="9.657" gradientTransform="translate(-14.24444,20.27067)" gradientUnits="userSpaceOnUse" xlink:href="#linearGradient2250"/><linearGradient id="linearGradient2174" x1="9.75" x2="16.915" y1="32.284" y2="39.443" gradientTransform="matrix(0.878270,0.000000,0.000000,0.878270,2.536988,4.967681)" gradientUnits="userSpaceOnUse" xlink:href="#linearGradient3087"/><linearGradient id="linearGradient2176" x1="12.005" x2="10.651" y1="35.688" y2="33.195" gradientTransform="matrix(1.007254,-2.636526e-2,2.636526e-2,1.007254,1.593411,7.919100e-2)" gradientUnits="userSpaceOnUse" xlink:href="#linearGradient2257"/><linearGradient id="linearGradient2178" x1="14.018" x2="15.416" y1="36.943" y2="38.268" gradientTransform="matrix(0.878099,-1.732370e-2,1.732370e-2,0.878099,2.163687,4.067899)" gradientUnits="userSpaceOnUse" xlink:href="#linearGradient2265"/><linearGradient id="linearGradient2196" x1="333.571" x2="564.286" y1="459.005" y2="459.005" gradientTransform="matrix(9.274505e-2,4.512719e-17,4.791958e-17,9.848387e-2,-24.80713,-7.890685)" gradientUnits="userSpaceOnUse" xlink:href="#linearGradient3660"/><linearGradient id="linearGradient2198" x1="336.156" x2="567" y1="504.344" y2="504.344" gradientTransform="matrix(9.274505e-2,4.512719e-17,4.791958e-17,9.848387e-2,-24.80713,-7.890685)" gradientUnits="userSpaceOnUse" xlink:href="#linearGradient3668"/><radialGradient id="radialGradient2200" cx="208.841" cy="515.082" r="90" fx="208.841" fy="515.082" gradientTransform="matrix(0.188214,5.064316e-3,-3.545858e-3,0.148595,-43.45739,-34.47941)" gradientUnits="userSpaceOnUse" xlink:href="#linearGradient3654"/><linearGradient id="linearGradient3692" x1="333.571" x2="564.286" y1="459.005" y2="459.005" gradientTransform="matrix(9.274505e-2,4.771489e-17,4.523783e-17,9.848387e-2,-24.80713,-7.890685)" gradientUnits="userSpaceOnUse" xlink:href="#linearGradient3660"/><linearGradient id="linearGradient3694" x1="336.156" x2="567" y1="504.344" y2="504.344" gradientTransform="matrix(9.274505e-2,4.771489e-17,4.523783e-17,9.848387e-2,-24.80713,-7.890685)" gradientUnits="userSpaceOnUse" xlink:href="#linearGradient3668"/><radialGradient id="radialGradient3696" cx="208.841" cy="515.082" r="90" fx="208.841" fy="515.082" gradientTransform="matrix(0.188214,5.064316e-3,-3.545858e-3,0.148595,-43.45739,-34.47941)" gradientUnits="userSpaceOnUse" xlink:href="#linearGradient3654"/><linearGradient id="linearGradient1533" x1="333.571" x2="564.286" y1="459.005" y2="459.005" gradientTransform="matrix(9.274505e-2,1.732047e-17,1.839222e-17,9.848387e-2,-8.477303,-25.38746)" gradientUnits="userSpaceOnUse" xlink:href="#linearGradient2119"/><linearGradient id="linearGradient1535" x1="336.156" x2="567" y1="504.344" y2="504.344" gradientTransform="matrix(9.274505e-2,1.732047e-17,1.839222e-17,9.848387e-2,-8.477303,-25.38746)" gradientUnits="userSpaceOnUse" xlink:href="#linearGradient2119"/><radialGradient id="radialGradient1537" cx="208.841" cy="515.082" r="90" fx="208.841" fy="515.082" gradientTransform="matrix(0.188214,5.064316e-3,-3.545858e-3,0.148595,-27.12757,-51.97619)" gradientUnits="userSpaceOnUse" xlink:href="#linearGradient2448"/><linearGradient id="linearGradient1555" x1="333.571" x2="564.286" y1="459.005" y2="459.005" gradientTransform="matrix(9.274505e-2,2.134263e-17,2.266326e-17,9.848387e-2,-8.477303,-25.38746)" gradientUnits="userSpaceOnUse" xlink:href="#linearGradient2119"/><linearGradient id="linearGradient1557" x1="336.156" x2="567" y1="504.344" y2="504.344" gradientTransform="matrix(9.274505e-2,2.134263e-17,2.266326e-17,9.848387e-2,-8.477303,-25.38746)" gradientUnits="userSpaceOnUse" xlink:href="#linearGradient2119"/><radialGradient id="radialGradient1559" cx="208.841" cy="515.082" r="90" fx="208.841" fy="515.082" gradientTransform="matrix(0.188214,5.064316e-3,-3.545858e-3,0.148595,-27.12757,-51.97619)" gradientUnits="userSpaceOnUse" xlink:href="#linearGradient2448"/><linearGradient id="linearGradient1561" x1="38.228" x2="37.535" y1="13.603" y2="6.629" gradientTransform="matrix(0.878270,0.000000,0.000000,0.878270,-11.39694,25.85938)" gradientUnits="userSpaceOnUse" xlink:href="#linearGradient3077"/><linearGradient id="linearGradient1563" x1="31.177" x2="40.859" y1="19.822" y2="9.657" gradientTransform="translate(-14.24444,20.27067)" gradientUnits="userSpaceOnUse" xlink:href="#linearGradient2250"/><linearGradient id="linearGradient1565" x1="9.75" x2="16.915" y1="32.284" y2="39.443" gradientTransform="matrix(0.878270,0.000000,0.000000,0.878270,2.536988,4.967681)" gradientUnits="userSpaceOnUse" xlink:href="#linearGradient3087"/><linearGradient id="linearGradient1567" x1="12.005" x2="10.651" y1="35.688" y2="33.195" gradientTransform="matrix(1.007254,-2.636526e-2,2.636526e-2,1.007254,1.593411,7.919100e-2)" gradientUnits="userSpaceOnUse" xlink:href="#linearGradient2257"/><linearGradient id="linearGradient1569" x1="14.018" x2="15.416" y1="36.943" y2="38.268" gradientTransform="matrix(0.878099,-1.732370e-2,1.732370e-2,0.878099,2.163687,4.067899)" gradientUnits="userSpaceOnUse" xlink:href="#linearGradient2265"/></defs><metadata id="metadata7"/><g id="layer1" style="display:inline"><g id="g1350" transform="matrix(0.802321,0.794892,-0.802321,0.794892,22.19608,-11.70135)"><path id="path1306" d="M 13.781250,11.718750 C 8.4423149,11.718750 4.1250009,16.252117 4.1250000,21.843750 C 4.1250002,27.435382 8.4423153,31.968749 13.781250,31.968750 C 17.786423,31.968750 21.219167,29.417978 22.687500,25.781250 L 24.375000,25.781250 L 26.906250,24.375000 L 27.468750,25.781250 L 34.468750,25.375000 L 35.374946,22.606295 L 36.531250,25.375000 L 38.312500,25.375000 L 39.281250,23.093750 L 40.375000,24.781250 L 42.000000,24.781250 C 42.012300,24.781250 42.022731,24.789526 42.031250,24.781250 C 42.039768,24.772973 41.949484,24.762536 41.949483,24.749474 C 41.949483,24.749474 45.187500,21.750000 45.187500,21.750000 C 45.187501,21.750000 43.937500,18.187500 43.937500,18.187500 L 22.625000,17.750000 C 21.124817,14.190065 17.733327,11.718751 13.781250,11.718750 z M 9.9062500,18.000000 L 10.312500,18.000000 C 11.382373,18.000000 12.250000,18.903567 12.250000,20.000000 L 12.250000,23.218750 C 12.250000,24.315183 11.382373,25.187500 10.312500,25.187500 L 9.9062500,25.187500 C 8.8363774,25.187500 7.9687500,24.315183 7.9687500,23.218750 L 7.9687500,20.000000 C 7.9687500,18.903567 8.8363772,18.000000 9.9062500,18.000000 z" style="opacity:1;fill:#dabf3c;fill-opacity:1;fill-rule:evenodd;stroke:none;stroke-width:1;stroke-linecap:butt;stroke-linejoin:round;stroke-miterlimit:4;stroke-dasharray:none;stroke-opacity:1"/><path id="rect2116" d="M 22.504203,18.754914 L 43.812998,19.068782 C 43.837600,19.068782 43.857404,19.085537 43.857404,19.106351 L 43.857404,20.096119 C 43.857404,20.116932 43.837600,20.133688 43.812998,20.133688 L 22.504203,19.819821 C 22.479603,19.819821 22.459797,19.803064 22.459797,19.782251 L 22.459797,18.792484 C 22.459797,18.771670 22.479603,18.754914 22.504203,18.754914 z" style="fill:url(#linearGradient1555);fill-opacity:1;fill-rule:evenodd;stroke:none;stroke-width:.31200001;stroke-linecap:butt;stroke-linejoin:round;stroke-miterlimit:4;stroke-opacity:1"/><path id="path2363" d="M 44.109140,22.592650 L 22.737203,22.638815 C 22.715573,22.638815 22.699524,22.687382 22.699525,22.749609 L 22.699525,25.577943 L 24.377446,25.577943 L 26.899137,24.171470 L 27.467200,25.577943 L 34.454960,25.184007 L 35.438018,22.564272 L 36.521436,25.184007 L 38.298083,25.184007 L 39.286398,22.906568 L 40.364559,24.593104 L 42.010784,24.593104 C 42.023084,24.593104 42.034146,24.589069 42.042665,24.580794 C 42.051182,24.572516 42.057157,24.560002 42.057156,24.546940 C 42.057156,24.546940 43.183241,23.474698 44.109140,22.592650 z" style="opacity:1;fill:url(#linearGradient1557);fill-opacity:1;fill-rule:evenodd;stroke:none;stroke-width:1;stroke-linecap:butt;stroke-linejoin:round;stroke-miterlimit:4;stroke-dasharray:none;stroke-opacity:1"/><path id="path2380" d="M 13.750003,12.234480 C 8.6896255,12.234480 4.5842774,16.525327 4.5842772,21.812504 C 4.5842772,27.099681 8.6896258,31.390529 13.750003,31.390529 C 18.810379,31.390529 22.915728,27.099681 22.915728,21.812504 C 22.915728,16.525327 18.810379,12.234480 13.750003,12.234480 z M 9.8490191,17.943236 L 10.261318,17.943236 C 11.347122,17.943236 12.227668,18.860257 12.227668,19.973016 L 12.227668,23.239693 C 12.227668,24.352452 11.347122,25.237758 10.261318,25.237758 L 9.8490191,25.237758 C 8.7632161,25.237758 7.8826697,24.352452 7.8826697,23.239693 L 7.8826697,19.973016 C 7.8826697,18.860257 8.7632159,17.943236 9.8490191,17.943236 z" style="fill:url(#radialGradient1559);fill-opacity:1;fill-rule:evenodd;stroke:none;stroke-width:.31200001;stroke-linecap:butt;stroke-linejoin:round;stroke-miterlimit:4;stroke-opacity:1"/><path id="path2440" d="M 21.710546,17.086923 C 17.128729,17.428351 15.880374,19.714140 12.227668,22.193088 L 12.227668,23.239693 C 12.227668,24.352452 11.347122,25.237758 10.261318,25.237758 L 9.8490191,25.237758 C 9.1709122,25.237758 8.6465984,24.851442 8.2949688,24.318014 C 7.1887830,24.726596 6.1567964,24.930859 5.1234375,25.079181 C 6.4018541,28.760938 9.7864203,31.390527 13.750003,31.390529 C 18.810397,31.390530 22.915727,27.099693 22.915728,21.812504 C 22.915728,20.092378 22.471361,18.482715 21.710546,17.086923 z" style="opacity:.45405403;fill:#c4a00f;fill-opacity:1;fill-rule:evenodd;stroke:none;stroke-width:.31200001;stroke-linecap:butt;stroke-linejoin:round;stroke-miterlimit:4;stroke-opacity:1"/><path id="rect2420" d="M 9.8951075,18.013262 L 10.308493,18.013262 C 11.378366,18.013262 12.239672,18.895949 12.239672,19.992382 L 12.239672,23.211815 C 12.239672,24.308248 11.378366,25.190936 10.308493,25.190936 L 9.8951075,25.190936 C 8.8252347,25.190936 7.9639292,24.308248 7.9639292,23.211815 L 7.9639292,19.992382 C 7.9639292,18.895949 8.8252347,18.013262 9.8951075,18.013262 z" style="fill:none;fill-opacity:.94117647;fill-rule:evenodd;stroke:#ac8b0b;stroke-width:.88543594;stroke-linecap:butt;stroke-linejoin:round;stroke-miterlimit:4;stroke-dasharray:none;stroke-opacity:1"/><path style="opacity:1;fill:none;fill-opacity:1;fill-rule:evenodd;stroke:#ac8b0b;stroke-width:.88543594;stroke-linecap:butt;stroke-linejoin:miter;stroke-miterlimit:4;stroke-dasharray:none;stroke-opacity:1" id="path3594" d="M 13.781250,11.718750 C 8.4423149,11.718750 4.1250009,16.252117 4.1250000,21.843750 C 4.1250002,27.435382 8.4423153,31.968749 13.781250,31.968750 C 17.786423,31.968750 21.219167,29.417978 22.687500,25.781250 L 24.375000,25.781250 L 26.906250,23.875000 L 27.968750,25.781250 L 33.968750,25.375000 L 35.437500,22.406250 L 37.031250,25.375000 L 38.312500,25.375000 L 39.281250,22.593750 L 40.875000,24.781250 L 42.000000,24.781250 C 42.012300,24.781250 42.022731,24.789526 42.031250,24.781250 C 42.039768,24.772973 42.232289,24.820359 42.232288,24.807297 C 42.232288,24.807297 45.187500,21.750000 45.187500,21.750000 C 45.187501,21.750000 43.937500,18.187500 43.937500,18.187500 L 22.625000,17.750000 C 21.124817,14.190065 17.733327,11.718751 13.781250,11.718750 z M 9.9062500,18.000000 L 10.312500,18.000000 C 11.382373,18.000000 12.250000,18.903567 12.250000,20.000000 L 12.250000,23.218750 C 12.250000,24.315183 11.382373,25.187500 10.312500,25.187500 L 9.9062500,25.187500 C 8.8363774,25.187500 7.9687500,24.315183 7.9687500,23.218750 L 7.9687500,20.000000 C 7.9687500,18.903567 8.8363772,18.000000 9.9062500,18.000000 z"/></g><g id="g2071" transform="translate(-0.187058,-1.370392)"><path id="path2144" d="M 22.498794,30.125380 C 23.332335,29.410917 35.782628,16.676871 35.782628,16.676871 L 38.856573,16.457303 L 43.687058,9.7604906 L 39.662731,6.1752987 L 33.405057,11.554705 L 33.405057,14.628651 L 20.670142,27.857593 C 20.066332,28.461403 21.730308,30.784082 22.498794,30.125380 z" style="opacity:1;color:#000;fill:url(#linearGradient1561);fill-opacity:1;fill-rule:nonzero;stroke:#878f9d;stroke-width:.9999997;stroke-linecap:butt;stroke-linejoin:miter;marker:none;marker-start:none;marker-mid:none;marker-end:none;stroke-miterlimit:4;stroke-dasharray:none;stroke-dashoffset:0;stroke-opacity:1;visibility:visible;display:inline;overflow:visible"/><path style="opacity:.53977275;color:#000;fill:none;fill-opacity:1;fill-rule:nonzero;stroke:url(#linearGradient1563);stroke-width:1.0000002;stroke-linecap:butt;stroke-linejoin:miter;marker:none;marker-start:none;marker-mid:none;marker-end:none;stroke-miterlimit:4;stroke-dasharray:none;stroke-dashoffset:0;stroke-opacity:1;visibility:visible;display:inline;overflow:visible" id="path3085" d="M 22.401987,29.085455 C 23.048760,28.531078 35.426388,15.855648 35.426388,15.855648 L 38.354971,15.607649 L 42.568887,9.9455840 L 39.679156,7.3965946 L 34.202578,12.114067 L 34.357836,14.965022 L 21.681731,28.257345 C 21.213213,28.725863 21.805692,29.596565 22.401987,29.085455 z"/><path id="path2142" d="M 8.4653111,43.611561 C 9.7818986,45.076790 13.438996,45.739726 15.060755,42.901647 C 15.767862,41.664211 17.154698,38.198845 23.341883,32.630379 C 24.381029,31.696208 25.481792,29.559241 24.548630,28.406512 L 22.133387,25.991269 C 21.145334,24.893432 18.398973,25.405520 17.272212,26.942145 C 13.913455,31.538339 8.4261393,35.197025 7.1887023,35.638967 C 4.8207828,36.484652 5.0872917,39.975116 6.6538792,41.635454 L 8.4653111,43.611561 z" style="color:#000;fill:url(#linearGradient1565);fill-opacity:1;fill-rule:nonzero;stroke:#204a87;stroke-width:.9999997;stroke-linecap:butt;stroke-linejoin:miter;marker:none;marker-start:none;marker-mid:none;marker-end:none;stroke-miterlimit:4;stroke-dashoffset:0;stroke-opacity:1;visibility:visible;display:inline;overflow:visible"/><path id="path3101" d="M 20.771261 28.201010 A 1.7677670 1.7677670 0 1 1 17.235727,28.201010 A 1.7677670 1.7677670 0 1 1 20.771261 28.201010 z" transform="matrix(0.570876,0.000000,0.000000,0.570876,9.154848,11.25111)" style="opacity:.60227275;color:#000;fill:#fff;fill-opacity:1;fill-rule:nonzero;stroke:none;stroke-width:1;stroke-linecap:butt;stroke-linejoin:miter;marker:none;marker-start:none;marker-mid:none;marker-end:none;stroke-miterlimit:4;stroke-dasharray:none;stroke-dashoffset:0;stroke-opacity:1;visibility:visible;display:inline;overflow:visible"/><path id="path3103" d="M 18.678905,29.624807 C 18.678905,29.624807 11.509014,36.924420 8.1502573,38.161857" style="opacity:1;color:#000;fill:none;fill-opacity:1;fill-rule:nonzero;stroke:url(#linearGradient1567);stroke-width:2.2945092;stroke-linecap:round;stroke-linejoin:round;marker:none;marker-start:none;marker-mid:none;marker-end:none;stroke-miterlimit:4;stroke-dasharray:none;stroke-dashoffset:0;stroke-opacity:1;visibility:visible;display:inline;overflow:visible"/><path style="opacity:.19886364;color:#000;fill:none;fill-opacity:1;fill-rule:nonzero;stroke:#fff;stroke-width:.99999946;stroke-linecap:butt;stroke-linejoin:miter;marker:none;marker-start:none;marker-mid:none;marker-end:none;stroke-miterlimit:4;stroke-dasharray:none;stroke-dashoffset:0;stroke-opacity:1;visibility:visible;display:inline;overflow:visible" id="path2270" d="M 8.8060013,42.486690 C 10.247267,44.232307 13.405535,44.647919 14.397161,42.116101 C 15.078468,40.376589 17.730783,36.450314 22.594745,32.072748 C 23.411654,31.338363 24.277003,29.658419 23.543411,28.752218 L 21.644704,26.853511 C 20.867961,25.990463 18.708951,26.393033 17.823164,27.601028 C 15.182728,31.214257 9.3398194,35.940582 7.9274145,36.406654 C 5.7406198,37.128264 6.1504221,39.627953 7.3819713,40.933203 L 8.8060013,42.486690 z"/><path id="path2247" d="M 20.824602,31.261024 C 20.824602,31.261024 13.501839,37.878429 11.910849,42.121069" style="opacity:.27840909;color:#000;fill:none;fill-opacity:1;fill-rule:nonzero;stroke:url(#linearGradient1569);stroke-width:2.2945092;stroke-linecap:round;stroke-linejoin:round;marker:none;marker-start:none;marker-mid:none;marker-end:none;stroke-miterlimit:4;stroke-dashoffset:0;stroke-opacity:1;visibility:visible;display:inline;overflow:visible"/></g></g></svg>